<?xml version="1.0" standalone="no"?>
<!DOCTYPE svg PUBLIC "-//W3C//DTD SVG 20010904//EN"
 "http://www.w3.org/TR/2001/REC-SVG-20010904/DTD/svg10.dtd">
<svg version="1.0" xmlns="http://www.w3.org/2000/svg"
 width="900.000000pt" height="408.000000pt" viewBox="0 0 900.000000 408.000000"
 preserveAspectRatio="xMidYMid meet">
<g transform="translate(0.000000,408.000000) scale(0.100000,-0.100000)"
fill="#ff0030" stroke="none">
<path d="M345 3920 c-103 -19 -183 -96 -218 -211 -16 -51 -17 -183 -17 -1716
0 -1621 0 -1661 20 -1717 37 -108 111 -180 212 -204 68 -17 7839 -17 7906 0
111 27 183 104 216 228 16 60 17 185 14 1725 -4 1780 0 1669 -50 1760 -22 41
-74 88 -128 116 l-45 24 -3935 1 c-2164 1 -3953 -2 -3975 -6z m5550 -1925 l0
-640 -1755 -3 c-1641 -2 -1756 -1 -1767 15 -10 13 -13 156 -13 634 0 578 1
619 18 628 11 7 591 10 1767 8 l1750 -2 0 -640z m1485 615 c168 -57 299 -170
378 -325 126 -249 76 -553 -123 -749 -94 -92 -194 -144 -330 -172 -113 -23
-230 -13 -345 28 -126 46 -280 182 -337 298 -48 100 -54 119 -69 215 -11 76
-11 104 0 180 8 49 19 104 26 120 80 199 217 335 407 402 102 36 290 38 393 3z
m-6020 -150 c120 -38 216 -110 282 -210 135 -205 85 -483 -115 -634 -100 -76
-164 -98 -287 -98 -102 0 -134 7 -215 50 -185 97 -289 299 -258 500 43 276
340 473 593 392z m1639 -1444 c8 -9 11 -60 9 -157 l-3 -144 -314 -3 c-245 -2
-316 1 -323 10 -11 19 -10 266 2 289 10 18 24 19 314 19 247 0 306 -3 315 -14z
m959 6 c9 -7 12 -45 10 -158 l-3 -149 -315 0 -315 0 -3 144 c-2 97 1 148 9
157 9 11 67 14 308 14 163 0 302 -4 309 -8z m972 -12 c6 -12 9 -74 8 -157 l-3
-138 -320 0 -320 0 -3 142 c-2 118 0 144 13 157 14 14 55 16 315 16 288 0 300
-1 310 -20z m965 -2 c3 -13 4 -84 3 -158 l-3 -135 -315 0 -315 0 -3 144 c-2
97 1 148 9 157 9 11 68 14 315 14 l304 0 5 -22z"/>
</g>
</svg>
